<svg xmlns="http://www.w3.org/2000/svg" width="1512" height="510" viewBox="0 0 1512 510">
<title>グループ別 未完了件数（優先度別）</title>
<text x="28.0" y="34.0" font-family="Yu Gothic, Meiryo, Arial, sans-serif" font-size="24" font-weight="700" fill="#1E3A8A" text-anchor="start">グループ別 未完了件数（優先度別）</text>
<rect x="1167" y="14" width="22" height="22" rx="5" fill="#DC2626"/>
<text x="1199.0" y="33.0" font-family="Yu Gothic, Meiryo, Arial, sans-serif" font-size="21" font-weight="600" fill="#111827" text-anchor="start">高</text>
<rect x="1272" y="14" width="22" height="22" rx="5" fill="#F59E0B"/>
<text x="1304.0" y="33.0" font-family="Yu Gothic, Meiryo, Arial, sans-serif" font-size="21" font-weight="600" fill="#111827" text-anchor="start">中</text>
<rect x="1377" y="14" width="22" height="22" rx="5" fill="#2563EB"/>
<text x="1409.0" y="33.0" font-family="Yu Gothic, Meiryo, Arial, sans-serif" font-size="21" font-weight="600" fill="#111827" text-anchor="start">低</text>
<line x1="225.0" y1="72" x2="225.0" y2="440" stroke="#E5E7EB" stroke-width="1"/>
<text x="225.0" y="462.0" font-family="Yu Gothic, Meiryo, Arial, sans-serif" font-size="17" font-weight="400" fill="#6B7280" text-anchor="middle">0</text>
<line x1="391.7" y1="72" x2="391.7" y2="440" stroke="#E5E7EB" stroke-width="1"/>
<text x="391.7" y="462.0" font-family="Yu Gothic, Meiryo, Arial, sans-serif" font-size="17" font-weight="400" fill="#6B7280" text-anchor="middle">5</text>
<line x1="558.4" y1="72" x2="558.4" y2="440" stroke="#E5E7EB" stroke-width="1"/>
<text x="558.4" y="462.0" font-family="Yu Gothic, Meiryo, Arial, sans-serif" font-size="17" font-weight="400" fill="#6B7280" text-anchor="middle">10</text>
<line x1="725.1" y1="72" x2="725.1" y2="440" stroke="#E5E7EB" stroke-width="1"/>
<text x="725.1" y="462.0" font-family="Yu Gothic, Meiryo, Arial, sans-serif" font-size="17" font-weight="400" fill="#6B7280" text-anchor="middle">15</text>
<line x1="891.9" y1="72" x2="891.9" y2="440" stroke="#E5E7EB" stroke-width="1"/>
<text x="891.9" y="462.0" font-family="Yu Gothic, Meiryo, Arial, sans-serif" font-size="17" font-weight="400" fill="#6B7280" text-anchor="middle">20</text>
<line x1="1058.6" y1="72" x2="1058.6" y2="440" stroke="#E5E7EB" stroke-width="1"/>
<text x="1058.6" y="462.0" font-family="Yu Gothic, Meiryo, Arial, sans-serif" font-size="17" font-weight="400" fill="#6B7280" text-anchor="middle">25</text>
<line x1="1225.3" y1="72" x2="1225.3" y2="440" stroke="#E5E7EB" stroke-width="1"/>
<text x="1225.3" y="462.0" font-family="Yu Gothic, Meiryo, Arial, sans-serif" font-size="17" font-weight="400" fill="#6B7280" text-anchor="middle">30</text>
<line x1="1392.0" y1="72" x2="1392.0" y2="440" stroke="#E5E7EB" stroke-width="1"/>
<text x="1392.0" y="462.0" font-family="Yu Gothic, Meiryo, Arial, sans-serif" font-size="17" font-weight="400" fill="#6B7280" text-anchor="middle">35</text>
<text x="32.0" y="148.0" font-family="Yu Gothic, Meiryo, Arial, sans-serif" font-size="24" font-weight="600" fill="#111827" text-anchor="start">グループA</text>
<rect x="225" y="112" width="1167" height="54" rx="27" fill="#F3F4F6"/>
<rect x="225.0" y="112" width="66.7" height="54" rx="12" fill="#DC2626"/>
<text x="258.3" y="147.0" font-family="Yu Gothic, Meiryo, Arial, sans-serif" font-size="19" font-weight="700" fill="#FFFFFF" text-anchor="middle">2</text>
<rect x="291.7" y="112" width="600.2" height="54" rx="12" fill="#F59E0B"/>
<text x="591.8" y="147.0" font-family="Yu Gothic, Meiryo, Arial, sans-serif" font-size="19" font-weight="700" fill="#FFFFFF" text-anchor="middle">18</text>
<rect x="891.9" y="112" width="333.4" height="54" rx="12" fill="#2563EB"/>
<text x="1058.6" y="147.0" font-family="Yu Gothic, Meiryo, Arial, sans-serif" font-size="19" font-weight="700" fill="#FFFFFF" text-anchor="middle">10</text>
<text x="1476.0" y="147.0" font-family="Yu Gothic, Meiryo, Arial, sans-serif" font-size="24" font-weight="700" fill="#1E3A8A" text-anchor="end">30件</text>
<text x="32.0" y="226.0" font-family="Yu Gothic, Meiryo, Arial, sans-serif" font-size="24" font-weight="600" fill="#111827" text-anchor="start">グループB</text>
<rect x="225" y="190" width="1167" height="54" rx="27" fill="#F3F4F6"/>
<rect x="225.0" y="190" width="33.3" height="54" rx="12" fill="#DC2626"/>
<text x="241.7" y="225.0" font-family="Yu Gothic, Meiryo, Arial, sans-serif" font-size="16" font-weight="700" fill="#FFFFFF" text-anchor="middle">1</text>
<rect x="258.3" y="190" width="400.1" height="54" rx="12" fill="#F59E0B"/>
<text x="458.4" y="225.0" font-family="Yu Gothic, Meiryo, Arial, sans-serif" font-size="19" font-weight="700" fill="#FFFFFF" text-anchor="middle">12</text>
<rect x="658.5" y="190" width="200.1" height="54" rx="12" fill="#2563EB"/>
<text x="758.5" y="225.0" font-family="Yu Gothic, Meiryo, Arial, sans-serif" font-size="19" font-weight="700" fill="#FFFFFF" text-anchor="middle">6</text>
<text x="1476.0" y="225.0" font-family="Yu Gothic, Meiryo, Arial, sans-serif" font-size="24" font-weight="700" fill="#1E3A8A" text-anchor="end">19件</text>
<text x="32.0" y="304.0" font-family="Yu Gothic, Meiryo, Arial, sans-serif" font-size="24" font-weight="600" fill="#111827" text-anchor="start">グループC</text>
<rect x="225" y="268" width="1167" height="54" rx="27" fill="#F3F4F6"/>
<rect x="225.0" y="268" width="33.3" height="54" rx="12" fill="#DC2626"/>
<text x="241.7" y="303.0" font-family="Yu Gothic, Meiryo, Arial, sans-serif" font-size="16" font-weight="700" fill="#FFFFFF" text-anchor="middle">1</text>
<rect x="258.3" y="268" width="466.8" height="54" rx="12" fill="#F59E0B"/>
<text x="491.7" y="303.0" font-family="Yu Gothic, Meiryo, Arial, sans-serif" font-size="19" font-weight="700" fill="#FFFFFF" text-anchor="middle">14</text>
<rect x="725.1" y="268" width="266.7" height="54" rx="12" fill="#2563EB"/>
<text x="858.5" y="303.0" font-family="Yu Gothic, Meiryo, Arial, sans-serif" font-size="19" font-weight="700" fill="#FFFFFF" text-anchor="middle">8</text>
<text x="1476.0" y="303.0" font-family="Yu Gothic, Meiryo, Arial, sans-serif" font-size="24" font-weight="700" fill="#1E3A8A" text-anchor="end">23件</text>
<text x="32.0" y="382.0" font-family="Yu Gothic, Meiryo, Arial, sans-serif" font-size="24" font-weight="600" fill="#111827" text-anchor="start">グループD</text>
<rect x="225" y="346" width="1167" height="54" rx="27" fill="#F3F4F6"/>
<rect x="225.0" y="346" width="200.1" height="54" rx="12" fill="#F59E0B"/>
<text x="325.0" y="381.0" font-family="Yu Gothic, Meiryo, Arial, sans-serif" font-size="19" font-weight="700" fill="#FFFFFF" text-anchor="middle">6</text>
<rect x="425.1" y="346" width="833.6" height="54" rx="12" fill="#2563EB"/>
<text x="841.8" y="381.0" font-family="Yu Gothic, Meiryo, Arial, sans-serif" font-size="19" font-weight="700" fill="#FFFFFF" text-anchor="middle">25</text>
<text x="1476.0" y="381.0" font-family="Yu Gothic, Meiryo, Arial, sans-serif" font-size="24" font-weight="700" fill="#1E3A8A" text-anchor="end">31件</text>
</svg>
